HIERARCHY
ROOT Hips
{
	OFFSET 0.000000 0.000000 0.000000 
	CHANNELS 6 Xposition Yposition Zposition Zrotation Yrotation Xrotation
	JOINT LHipJoint
	{
		OFFSET 0.000000 0.000000 0.000000 
		CHANNELS 3 Zrotation Yrotation Xrotation
		JOINT LeftHip
		{
			OFFSET 1.656740 -1.802820 0.624770 
			CHANNELS 3 Zrotation Yrotation Xrotation
			JOINT LeftKnee
			{
				OFFSET 2.597200 -7.135760 0.000000 
				CHANNELS 3 Zrotation Yrotation Xrotation
				JOINT LeftAnkle
				{
					OFFSET 2.492360 -6.847700 0.000000 
					CHANNELS 3 Zrotation Yrotation Xrotation
					JOINT LeftToe
					{
						OFFSET 0.197040 -0.541360 2.145810 
						CHANNELS 3 Zrotation Yrotation Xrotation
						End Site
						{
							OFFSET 0.000000 -0.000000 1.112490 
						}
					}
				}
			}
		}
	}
	JOINT RHipJoint
	{
		OFFSET 0.000000 0.000000 0.000000 
		CHANNELS 3 Zrotation Yrotation Xrotation
		JOINT RightHip
		{
			OFFSET -1.610700 -1.802820 0.624760 
			CHANNELS 3 Zrotation Yrotation Xrotation
			JOINT RightKnee
			{
				OFFSET -2.595020 -7.129770 0.000000 
				CHANNELS 3 Zrotation Yrotation Xrotation
				JOINT RightAnkle
				{
					OFFSET -2.467800 -6.780240 0.000000 
					CHANNELS 3 Zrotation Yrotation Xrotation
					JOINT RightToe
					{
						OFFSET -0.230240 -0.632580 2.133680 
						CHANNELS 3 Zrotation Yrotation Xrotation
						End Site
						{
							OFFSET -0.000000 -0.000000 1.115690 
						}
					}
				}
			}
		}
	}
	JOINT lowerback
	{
		OFFSET 0.000000 0.000000 0.000000 
		CHANNELS 3 Zrotation Yrotation Xrotation
		JOINT Chest
		{
			OFFSET 0.019610 2.054500 -0.141120 
			CHANNELS 3 Zrotation Yrotation Xrotation
			JOINT Chest2
			{
				OFFSET 0.010210 2.064360 -0.059210 
				CHANNELS 3 Zrotation Yrotation Xrotation
				JOINT lowerneck
				{
					OFFSET 0.000000 0.000000 0.000000 
					CHANNELS 3 Zrotation Yrotation Xrotation
					JOINT Neck
					{
						OFFSET 0.007130 1.567110 0.149680 
						CHANNELS 3 Zrotation Yrotation Xrotation
						JOINT Head
						{
							OFFSET 0.034290 1.560410 -0.100060 
							CHANNELS 3 Zrotation Yrotation Xrotation
							End Site
							{
								OFFSET 0.013050 1.625600 -0.052650 
							}
						}
					}
				}
				JOINT LeftCollar
				{
					OFFSET 0.000000 0.000000 0.000000 
					CHANNELS 3 Zrotation Yrotation Xrotation
					JOINT LeftShoulder
					{
						OFFSET 3.542050 0.904360 -0.173640 
						CHANNELS 3 Zrotation Xrotation Yrotation
						JOINT LeftElbow
						{
							OFFSET 0.000000 -4.865130 -0.000000 
							CHANNELS 3 Zrotation Xrotation Yrotation
							JOINT LeftWrist
							{
								OFFSET 0.000000 -3.355540 0.000000 
								CHANNELS 3 Zrotation Xrotation Yrotation
								JOINT lhand
								{
									OFFSET 0.000000 0.000000 0.000000 
									CHANNELS 3 Zrotation Xrotation Yrotation
									JOINT LFingers
									{
										OFFSET 0.000000 -0.661170 0.000000 
										CHANNELS 3 Zrotation Xrotation Yrotation
										End Site
										{
											OFFSET 0.000000 -0.533060 0.000000 
										}
									}
								}
								JOINT LThumb
								{
									OFFSET 0.000000 0.000000 0.000000 
									CHANNELS 3 Zrotation Xrotation Yrotation
									End Site
									{
										OFFSET 0.000000 -0.541200 0.541200 
									}
								}
							}
						}
					}
				}
				JOINT RightCollar
				{
					OFFSET 0.000000 0.000000 0.000000 
					CHANNELS 3 Zrotation Yrotation Xrotation
					JOINT RightShoulder
					{
						OFFSET -3.498020 0.759940 -0.326160 
						CHANNELS 3 Zrotation Xrotation Yrotation
						JOINT RightElbow
						{
							OFFSET 0.000000 -5.026490 0.000000 
							CHANNELS 3 Zrotation Xrotation Yrotation
							JOINT RightWrist
							{
								OFFSET 0.000000 -3.364310 0.000000 
								CHANNELS 3 Zrotation Xrotation Yrotation
								JOINT rhand
								{
									OFFSET 0.000000 0.000000 0.000000 
									CHANNELS 3 Zrotation Xrotation Yrotation
									JOINT RFingers
									{
										OFFSET 0.000000 -0.730410 0.000000 
										CHANNELS 3 Zrotation Xrotation Yrotation
										End Site
										{
											OFFSET 0.000000 -0.588870 0.000000 
										}
									}
								}
								JOINT RThumb
								{
									OFFSET 0.000000 0.000000 0.000000 
									CHANNELS 3 Zrotation Xrotation Yrotation
									End Site
									{
										OFFSET 0.000000 -0.597860 0.597860 
									}
								}
							}
						}
					}
				}
			}
		}
	}
}
MOTION
Frames: 5
Frame Time: 0.033558
0.000000 0.000000 0.000000 2.590300 -8.001200 -2.841200 0.000000 0.000000 0.000000 -23.940701 -12.263200 -24.984600 5.769000 14.200700 44.047600 0.543400 3.296500 -15.516500 0.142800 -2.435400 -6.710500 0.000000 0.000000 0.000000 19.988800 6.848900 7.734400 -10.084400 -17.457001 59.770000 -0.613100 -12.383100 15.351600 -3.457800 11.401600 -33.646702 -0.424800 1.315300 9.044200 -1.449000 1.649400 1.706600 -1.453600 0.816500 -3.267100 -2.640600 0.637900 -15.249400 -0.005100 1.229000 -7.906200 0.489700 0.673600 0.006700 -0.000000 0.000000 0.000000 -3.096200 12.286000 -4.227500 10.511800 -17.536100 1.625800 25.576900 -8.985100 -20.418301 0.000000 0.000000 0.000000 -7.125000 0.000000 0.000000 -3.020200 52.381100 0.549100 -0.000000 0.000000 0.000000 -7.661100 -8.100400 42.257900 -38.267399 -47.009201 -17.160900 -34.217400 -34.188900 -19.145100 0.000000 0.000000 0.000000 7.125000 0.000000 -0.000000 -3.799700 7.247200 -3.297500 
0.000000 0.000000 0.000000 2.764400 -7.318000 -2.910200 0.000000 0.000000 0.000000 -25.671499 -11.380000 -20.317301 5.355000 13.772700 42.334499 0.808700 2.538000 -18.088100 0.089600 -1.931000 -5.315000 0.000000 0.000000 0.000000 19.355101 8.013000 -0.131400 -12.644500 -18.650000 68.017799 0.200200 -14.201000 7.413600 -2.569600 9.963400 -28.858200 -0.284400 0.865900 9.205400 -1.478800 1.063200 1.733600 -1.498100 0.523700 -3.337600 -2.289500 0.805800 -15.593400 -0.429000 1.405000 -6.970900 0.315400 0.736400 0.365800 -0.000000 -0.000000 0.000000 -2.635600 9.601100 -9.593000 12.304600 -20.259899 2.206600 26.576099 -12.879500 -18.293900 0.000000 0.000000 0.000000 -7.125000 0.000000 0.000000 -1.526200 50.260799 0.197900 -0.000000 -0.000000 0.000000 -5.475900 -6.361500 40.940300 -30.189301 -41.055099 -11.533700 -33.695999 -32.925701 -19.798300 0.000000 0.000000 0.000000 7.125000 0.000000 -0.000000 -3.367400 6.616400 -2.962200 
0.000000 0.000000 0.000000 2.913100 -6.620700 -3.051700 0.000000 0.000000 0.000000 -27.063400 -9.727400 -15.261100 4.610300 12.931000 39.110699 0.893000 2.117300 -18.734501 0.043600 -1.348100 -3.707100 0.000000 0.000000 0.000000 18.858900 10.643300 -7.821100 -14.020900 -19.120399 72.268303 0.707700 -15.202000 -1.507900 -1.337800 7.323600 -20.677500 -0.384400 0.634000 9.390200 -1.257500 0.751200 1.671000 -1.178800 0.370200 -3.516600 -2.862100 0.769900 -14.584300 -0.461900 1.418300 -6.822500 0.394300 0.755400 0.246900 -0.000000 -0.000000 0.000000 -2.358600 7.241300 -14.914000 15.636200 -25.024900 3.490600 27.135099 -14.864400 -19.115101 0.000000 0.000000 0.000000 -7.125000 0.000000 0.000000 -1.132300 51.254299 0.174500 -0.000000 -0.000000 0.000000 -4.003400 -3.371600 38.224400 -23.764299 -34.914001 -7.571200 -33.017399 -30.370001 -18.496799 0.000000 0.000000 0.000000 7.125000 0.000000 -0.000000 -3.137600 8.256300 -2.658600 
0.000000 0.000000 0.000000 3.942100 -5.061400 -3.208400 0.000000 0.000000 0.000000 -29.429600 -8.880200 -9.647600 3.925600 12.060700 35.946999 1.067700 1.058000 -19.934999 0.001200 0.227900 0.626100 0.000000 0.000000 0.000000 16.916401 11.860400 -14.468100 -13.995700 -19.112700 72.191399 0.670200 -14.379200 -6.747700 -0.683700 5.286600 -14.727700 -1.312200 0.145900 8.950600 -1.392200 0.015900 1.667100 -0.704500 0.014700 -3.288900 -2.988100 1.035600 -13.848300 -0.169700 1.779100 -5.970100 0.522400 0.934800 0.394800 0.000000 -0.000000 0.000000 -1.086300 5.321000 -21.335800 19.625700 -30.188801 5.341900 26.235100 -18.532900 -18.686300 0.000000 0.000000 0.000000 -7.125000 0.000000 0.000000 -1.947900 50.629002 0.270300 0.000000 -0.000000 0.000000 -2.369100 -0.013300 34.631901 -18.569599 -28.880400 -4.821200 -33.382999 -28.001200 -17.055700 0.000000 0.000000 0.000000 7.125000 0.000000 -0.000000 -3.583000 9.837200 -2.924000 
0.000000 0.000000 0.000000 3.561300 -2.810300 -2.718500 0.000000 0.000000 0.000000 -29.943399 -8.633000 -5.206600 3.442300 11.378800 33.568401 1.182100 0.779600 -20.846300 0.046100 -1.386100 -3.811900 0.000000 0.000000 0.000000 16.381701 12.949600 -20.649099 -12.630700 -18.644699 67.974297 0.348000 -12.006200 -10.847800 -0.764500 5.583500 -15.580600 -0.813500 -0.479000 8.529100 -1.091200 -0.749100 1.617000 -0.587600 -0.369000 -3.110500 -3.894100 0.850100 -14.455800 0.415300 1.709500 -4.443800 0.880700 0.907600 0.986200 -0.000000 -0.000000 0.000000 -0.013400 3.378000 -26.448799 25.421101 -36.631401 8.539900 25.779400 -19.013800 -23.404600 0.000000 0.000000 0.000000 -7.125000 0.000000 0.000000 -3.678800 55.614399 0.959300 -0.000000 -0.000000 0.000000 -1.409800 3.683100 30.468100 -15.112700 -24.302799 -3.272200 -33.171398 -25.018600 -15.139600 0.000000 0.000000 0.000000 7.125000 0.000000 -0.000000 -3.710100 12.095500 -2.856500 
